<?xml version="1.0" standalone="no"?>
<!DOCTYPE svg PUBLIC "-//W3C//DTD SVG 20010904//EN"
 "http://www.w3.org/TR/2001/REC-SVG-20010904/DTD/svg10.dtd">
<svg version="1.0" xmlns="http://www.w3.org/2000/svg"
 width="440.000000pt" height="440.000000pt" viewBox="0 0 440.000000 440.000000"
 preserveAspectRatio="xMidYMid meet">

<g transform="translate(0.000000,440.000000) scale(0.100000,-0.100000)"
fill="#000000" stroke="none">
<path d="M0 2200 l0 -2200 2200 0 2200 0 0 2200 0 2200 -2200 0 -2200 0 0
-2200z m930 2039 c106 -49 180 -147 203 -269 l12 -60 1077 0 1077 0 16 58 c32
109 102 194 201 239 156 71 322 45 433 -68 181 -184 131 -487 -99 -604 -26
-13 -67 -27 -89 -31 l-41 -7 0 -198 0 -199 180 0 180 0 0 -195 0 -195 -180 0
-180 0 0 -295 c0 -228 3 -296 13 -299 106 -31 182 -91 220 -174 27 -59 29
-177 3 -235 -35 -79 -154 -177 -216 -177 -19 0 -20 -6 -20 -172 l-1 -173 -39
42 -40 42 0 129 0 129 -38 6 c-128 21 -232 172 -219 318 11 129 98 223 245
265 9 3 12 71 12 299 l0 295 -230 0 -230 0 0 195 0 195 230 0 230 0 0 200 0
200 -27 0 c-44 0 -128 45 -184 97 -56 53 -95 112 -114 176 l-12 42 -1081 3
-1082 2 -29 -65 c-16 -35 -42 -81 -58 -101 -31 -42 -136 -114 -164 -114 -10 0
-30 -5 -44 -12 l-25 -11 0 -276 0 -275 -40 39 -40 39 0 237 0 237 -47 12
c-199 49 -320 243 -283 450 14 78 29 109 83 168 85 92 162 124 292 119 71 -2
102 -8 145 -28z m820 -2096 l-1 -958 -36 40 c-20 22 -183 192 -362 379 -179
186 -329 344 -333 350 -3 6 -8 119 -10 250 l-3 238 60 -65 c161 -173 319 -337
327 -337 4 0 8 204 8 453 0 250 3 488 6 530 l7 77 168 0 169 0 0 -957z m1180
762 l0 -195 -290 0 -290 0 0 -125 0 -125 290 0 290 0 0 -195 0 -195 -462 2
-463 3 -3 513 -2 512 465 0 465 0 0 -195z m-2472 113 c20 -23 69 -76 108 -118
39 -41 98 -105 132 -142 l62 -67 0 -753 0 -752 -46 44 c-26 25 -104 108 -175
185 l-129 140 0 752 c0 414 2 753 5 753 3 0 22 -19 43 -42z m1360 -2334 c91
-45 143 -128 143 -227 0 -74 -19 -123 -68 -178 -57 -63 -105 -84 -193 -84 -82
0 -113 12 -175 67 -108 94 -113 266 -11 369 82 82 204 103 304 53z m1058 -2
c55 -28 109 -92 124 -147 34 -121 -10 -243 -109 -302 -108 -65 -224 -51 -311
37 -132 131 -92 340 80 420 58 27 155 23 216 -8z m-2306 -77 l0 -95 100 0 100
0 0 95 0 95 60 0 60 0 0 -250 0 -250 -60 0 -60 0 0 95 0 95 -100 0 -100 0 0
-95 0 -95 -65 0 -65 0 0 250 0 250 65 0 65 0 0 -95z m3140 10 c0 -47 2 -85 5
-85 3 0 43 39 88 86 l82 85 78 -3 77 -3 -100 -105 c-59 -61 -98 -110 -95 -118
3 -7 44 -63 92 -123 133 -167 129 -149 37 -149 l-79 1 -69 90 -69 90 -23 -22
c-19 -18 -24 -34 -26 -88 l-3 -66 -56 -3 c-56 -3 -56 -3 -63 29 -8 40 -8 432
0 453 5 12 21 16 65 16 l59 0 0 -85z"/>
<path d="M723 4043 c-28 -5 -81 -58 -94 -90 -34 -91 41 -203 136 -203 48 0
116 40 137 80 59 114 -48 242 -179 213z"/>
<path d="M3630 4019 c-53 -22 -100 -89 -100 -142 0 -37 41 -106 74 -127 44
-26 120 -27 163 0 91 55 96 179 9 245 -40 31 -105 41 -146 24z"/>
<path d="M3599 1901 c-56 -57 -28 -160 50 -181 76 -20 141 28 141 103 0 31 -7
46 -34 73 -29 29 -41 34 -81 34 -38 0 -52 -5 -76 -29z"/>
<path d="M1614 547 c-31 -28 -37 -41 -42 -85 -4 -50 -3 -53 36 -92 36 -36 45
-40 89 -40 132 0 185 134 87 220 -29 25 -43 30 -84 30 -43 0 -56 -5 -86 -33z"/>
<path d="M2686 559 c-54 -42 -69 -104 -41 -163 20 -43 63 -66 120 -66 40 0 52
5 81 34 30 30 34 40 34 86 0 47 -4 56 -39 91 -33 34 -45 39 -83 39 -31 0 -54
-7 -72 -21z"/>
</g>
</svg>
