<svg width="382" height="382" viewBox="0 0 382 382" fill="black" xmlns="http://www.w3.org/2000/svg">
<path d="M78.3862 26.434C78.3862 14.444 78.3862 8.44894 74.6614 4.72411C70.9365 0.999283 64.9415 0.999283 52.9515 0.999283H26.4347C14.4447 0.999283 8.44968 0.999283 4.72485 4.72411C1.00002 8.44894 1.00002 14.444 1.00002 26.434L1.00002 204.258C1.00002 216.248 1.00002 222.243 4.72485 225.968C8.44968 229.693 14.4447 229.693 26.4347 229.693L52.9515 229.693C64.9415 229.693 70.9365 229.693 74.6614 233.418C78.3862 237.142 78.3862 243.137 78.3862 255.127V280.489C78.3862 292.479 78.3862 298.474 82.111 302.199C85.8358 305.924 91.8309 305.924 103.821 305.924H126.873C138.863 305.924 144.858 305.924 148.583 302.199C152.307 298.474 152.307 292.479 152.307 280.489L152.307 255.127C152.307 243.137 152.307 237.142 156.032 233.418C159.757 229.693 165.752 229.693 177.742 229.693H204.259C216.249 229.693 222.244 229.693 225.969 233.418C229.694 237.142 229.694 243.137 229.694 255.127L229.694 280.489C229.694 292.479 229.694 298.474 233.418 302.199C237.143 305.924 243.138 305.924 255.128 305.924H278.179C290.169 305.924 296.164 305.924 299.889 309.649C303.614 313.374 303.614 319.369 303.614 331.359V355.565C303.614 367.555 303.614 373.55 307.339 377.275C311.063 381 317.059 381 329.049 381H355.565C367.555 381 373.55 381 377.275 377.275C381 373.55 381 367.555 381 355.565L381 26.434C381 14.444 381 8.44894 377.275 4.72411C373.55 0.999283 367.555 0.999283 355.565 0.999283H329.049C317.059 0.999283 311.064 0.999283 307.339 4.72411C303.615 8.44894 303.615 14.444 303.615 26.434L303.615 203.103C303.615 215.093 303.615 221.088 299.89 224.813C296.165 228.538 290.17 228.538 278.18 228.538L255.128 228.538C243.138 228.538 237.143 228.538 233.418 224.813C229.694 221.088 229.694 215.093 229.694 203.103V177.741C229.694 165.751 229.694 159.756 225.969 156.031C222.244 152.307 216.249 152.307 204.259 152.307H177.742C165.752 152.307 159.757 152.307 156.032 156.031C152.307 159.756 152.307 165.751 152.307 177.741V203.103C152.307 215.093 152.307 221.088 148.583 224.813C144.858 228.538 138.863 228.538 126.873 228.538H103.821C91.8309 228.538 85.8358 228.538 82.111 224.813C78.3862 221.088 78.3862 215.093 78.3862 203.103L78.3862 26.434Z" fill="black" stroke="white" stroke-width="0.52989"/>
</svg>
