<?xml version="1.0" encoding="UTF-8"?>
<!DOCTYPE svg PUBLIC "-//W3C//DTD SVG 1.1//EN" "http://www.w3.org/Graphics/SVG/1.1/DTD/svg11.dtd">
<svg xmlns="http://www.w3.org/2000/svg" version="1.1" width="1024" height="1024" viewBox="0 0 1024 1024" style="shape-rendering:geometricPrecision; text-rendering:geometricPrecision; image-rendering:optimizeQuality; fill-rule:evenodd; clip-rule:evenodd" xmlns:xlink="http://www.w3.org/1999/xlink">
<g><path style="opacity:1" fill="#080808" d="M 406.5,362.5 C 478.665,363.499 550.998,363.833 623.5,363.5C 623.5,362.167 623.5,360.833 623.5,359.5C 628.319,339.691 640.986,329.358 661.5,328.5C 680.388,329.695 692.554,339.362 698,357.5C 700.811,378.049 692.977,392.882 674.5,402C 671.568,402.953 668.568,403.453 665.5,403.5C 664.17,409.798 663.503,416.465 663.5,423.5C 663.5,430.342 663.834,437.009 664.5,443.5C 676.296,443.748 687.796,443.414 699,442.5C 700.157,454.92 700.991,467.42 701.5,480C 701.619,481.281 701.119,482.448 700,483.5C 688.438,482.606 676.604,482.273 664.5,482.5C 664.167,502.178 664.5,521.845 665.5,541.5C 686.411,548.322 693.911,562.322 688,583.5C 682.925,593.072 675.092,599.072 664.5,601.5C 663.833,611.833 663.167,622.167 662.5,632.5C 660.164,630.996 658.331,628.996 657,626.5C 656.667,618.167 656.333,609.833 656,601.5C 640.108,597.775 631.608,587.775 630.5,571.5C 631.653,555.012 640.32,545.012 656.5,541.5C 657.166,531.839 657.5,522.006 657.5,512C 657.499,501.81 656.832,491.977 655.5,482.5C 640.829,482.889 626.162,483.056 611.5,483C 610.511,469.913 610.177,456.746 610.5,443.5C 625.5,443.5 640.5,443.5 655.5,443.5C 656.83,437.202 657.497,430.535 657.5,423.5C 657.497,416.465 656.83,409.798 655.5,403.5C 647.619,403.206 640.952,400.206 635.5,394.5C 629.251,388.504 624.918,381.337 622.5,373C 550.16,371.32 477.827,371.153 405.5,372.5C 401.318,388.68 390.985,398.347 374.5,401.5C 373.833,419.5 373.167,437.5 372.5,455.5C 370.5,453.167 368.5,450.833 366.5,448.5C 366.5,432.5 366.5,416.5 366.5,400.5C 365.167,400.5 363.833,400.5 362.5,400.5C 343.502,395.323 333.502,382.823 332.5,363C 334.197,340.136 346.53,327.636 369.5,325.5C 392.207,327.54 404.54,339.873 406.5,362.5 Z"/></g>
<g><path style="opacity:1" fill="#fbfbfb" d="M 364.5,348.5 C 377.846,348.014 384.346,354.347 384,367.5C 382.421,373.41 378.588,376.91 372.5,378C 363.649,379.492 357.816,375.992 355,367.5C 353.578,358.783 356.745,352.45 364.5,348.5 Z"/></g>
<g><path style="opacity:1" fill="#fcfcfc" d="M 658.5,350.5 C 674.021,351.883 679.188,359.883 674,374.5C 667.364,380.949 659.864,382.115 651.5,378C 641.771,365.487 644.105,356.321 658.5,350.5 Z"/></g>
<g><path style="opacity:1" fill="#616161" d="M 623.5,359.5 C 623.5,360.833 623.5,362.167 623.5,363.5C 550.998,363.833 478.665,363.499 406.5,362.5C 478.5,362.5 550.5,362.5 622.5,362.5C 622.263,361.209 622.596,360.209 623.5,359.5 Z"/></g>
<g><path style="opacity:0.995" fill="#cecece" d="M 362.5,400.5 C 363.833,400.5 365.167,400.5 366.5,400.5C 366.5,416.5 366.5,432.5 366.5,448.5C 365.504,433.009 365.17,417.342 365.5,401.5C 364.209,401.737 363.209,401.404 362.5,400.5 Z"/></g>
<g><path style="opacity:1" fill="#343434" d="M 665.5,403.5 C 664.519,416.754 664.186,430.087 664.5,443.5C 663.834,437.009 663.5,430.342 663.5,423.5C 663.503,416.465 664.17,409.798 665.5,403.5 Z"/></g>
<g><path style="opacity:1" fill="#3e3e3e" d="M 655.5,403.5 C 656.83,409.798 657.497,416.465 657.5,423.5C 657.497,430.535 656.83,437.202 655.5,443.5C 656.833,430.167 656.833,416.833 655.5,403.5 Z"/></g>
<g><path style="opacity:1" fill="#454545" d="M 374.5,401.5 C 374.833,419.845 374.5,438.179 373.5,456.5C 372.893,456.376 372.56,456.043 372.5,455.5C 373.167,437.5 373.833,419.5 374.5,401.5 Z"/></g>
<g><path style="opacity:1" fill="#424242" d="M 527.5,483.5 C 527.611,482.883 527.944,482.383 528.5,482C 547.164,481.5 565.83,481.333 584.5,481.5C 584.5,469.167 584.5,456.833 584.5,444.5C 554.167,444.5 523.833,444.5 493.5,444.5C 493.5,444.167 493.5,443.833 493.5,443.5C 524.176,443.703 554.842,443.37 585.5,442.5C 585.5,456.167 585.5,469.833 585.5,483.5C 566.167,483.5 546.833,483.5 527.5,483.5 Z"/></g>
<g><path style="opacity:1" fill="#040404" d="M 393.5,555.5 C 393.171,540.324 393.504,525.324 394.5,510.5C 406.524,523.855 418.857,536.855 431.5,549.5C 431.56,550.043 431.893,550.376 432.5,550.5C 433.5,514.84 433.833,479.173 433.5,443.5C 444.654,442.505 455.988,442.172 467.5,442.5C 467.169,506.405 467.502,570.238 468.5,634C 467.833,634.667 467.167,634.667 466.5,634C 442.698,608.53 418.531,583.363 394,558.5C 393.517,557.552 393.351,556.552 393.5,555.5 Z"/></g>
<g><path style="opacity:1" fill="#000000" d="M 493.5,444.5 C 523.833,444.5 554.167,444.5 584.5,444.5C 584.5,456.833 584.5,469.167 584.5,481.5C 565.83,481.333 547.164,481.5 528.5,482C 527.944,482.383 527.611,482.883 527.5,483.5C 527.58,491.29 527.58,499.29 527.5,507.5C 546.833,507.5 566.167,507.5 585.5,507.5C 585.5,520.167 585.5,532.833 585.5,545.5C 554.833,545.5 524.167,545.5 493.5,545.5C 493.5,511.833 493.5,478.167 493.5,444.5 Z"/></g>
<g><path style="opacity:1" fill="#020202" d="M 335.5,448.5 C 346.138,460.141 356.805,471.807 367.5,483.5C 367.832,533.669 367.499,583.669 366.5,633.5C 355.124,622.459 344.457,610.792 334.5,598.5C 334.168,548.331 334.501,498.331 335.5,448.5 Z"/></g>
<g><path style="opacity:1" fill="#6a6a6a" d="M 335.5,448.5 C 334.501,498.331 334.168,548.331 334.5,598.5C 333.169,548.332 333.169,497.998 334.5,447.5C 335.107,447.624 335.44,447.957 335.5,448.5 Z"/></g>
<g><path style="opacity:1" fill="#878787" d="M 433.5,443.5 C 433.833,479.173 433.5,514.84 432.5,550.5C 431.893,550.376 431.56,550.043 431.5,549.5C 432.167,514.167 432.833,478.833 433.5,443.5 Z"/></g>
<g><path style="opacity:1" fill="#2e2e2e" d="M 655.5,482.5 C 656.832,491.977 657.499,501.81 657.5,512C 657.5,522.006 657.166,531.839 656.5,541.5C 656.821,521.757 656.487,502.091 655.5,482.5 Z"/></g>
<g><path style="opacity:1" fill="#c1c1c1" d="M 394.5,510.5 C 393.504,525.324 393.171,540.324 393.5,555.5C 392.174,540.328 392.174,524.995 393.5,509.5C 394.107,509.624 394.44,509.957 394.5,510.5 Z"/></g>
<g><path style="opacity:1" fill="#727272" d="M 493.5,443.5 C 493.5,443.833 493.5,444.167 493.5,444.5C 493.5,478.167 493.5,511.833 493.5,545.5C 524.167,545.5 554.833,545.5 585.5,545.5C 554.671,546.498 523.671,546.831 492.5,546.5C 492.168,511.996 492.502,477.663 493.5,443.5 Z"/></g>
<g><path style="opacity:1" fill="#fbfbfb" d="M 655.5,560.5 C 668.205,559.693 673.038,565.36 670,577.5C 661.93,584.967 655.263,583.967 650,574.5C 648.268,568.314 650.101,563.647 655.5,560.5 Z"/></g>
<g><path style="opacity:1" fill="#494949" d="M 367.5,483.5 C 368.831,533.668 368.831,584.002 367.5,634.5C 366.893,634.376 366.56,634.043 366.5,633.5C 367.499,583.669 367.832,533.669 367.5,483.5 Z"/></g>
<g><path style="opacity:1" fill="#3e3e3e" d="M 664.5,601.5 C 664.667,612.505 664.5,623.505 664,634.5C 663.283,633.956 662.783,633.289 662.5,632.5C 663.167,622.167 663.833,611.833 664.5,601.5 Z"/></g>
<g><path style="opacity:1" fill="#0d0d0d" d="M 455.5,682.5 C 475.256,680.265 486.589,688.931 489.5,708.5C 486.304,727.098 475.304,735.598 456.5,734C 437.742,726.397 432.242,713.231 440,694.5C 444.02,688.919 449.186,684.919 455.5,682.5 Z"/></g>
<g><path style="opacity:1" fill="#0d0d0d" d="M 561.5,682.5 C 580.747,680.75 591.747,689.417 594.5,708.5C 592.132,726.703 581.798,735.203 563.5,734C 547.754,729.349 540.921,718.849 543,702.5C 545.587,692.417 551.753,685.75 561.5,682.5 Z"/></g>
<g><path style="opacity:1" fill="#0c0c0c" d="M 349.5,714.5 C 348.51,720.31 348.177,726.31 348.5,732.5C 344.833,732.5 341.167,732.5 337.5,732.5C 337.5,716.5 337.5,700.5 337.5,684.5C 341.167,684.5 344.833,684.5 348.5,684.5C 348.177,690.69 348.51,696.69 349.5,702.5C 355.842,702.666 362.175,702.5 368.5,702C 369.476,695.924 369.81,689.758 369.5,683.5C 373.833,683.5 378.167,683.5 382.5,683.5C 382.5,700.167 382.5,716.833 382.5,733.5C 378.167,733.5 373.833,733.5 369.5,733.5C 369.5,727.167 369.5,720.833 369.5,714.5C 362.833,714.5 356.167,714.5 349.5,714.5 Z"/></g>
<g><path style="opacity:1" fill="#121212" d="M 663.5,719.5 C 662.515,723.634 662.182,727.968 662.5,732.5C 658.833,732.5 655.167,732.5 651.5,732.5C 650.339,716.672 650.172,700.672 651,684.5C 655.066,683.536 659.233,683.203 663.5,683.5C 663.172,688.875 663.505,694.208 664.5,699.5C 669.985,694.515 675.319,689.348 680.5,684C 685.864,683.171 691.198,683.337 696.5,684.5C 689.833,691.5 683.167,698.5 676.5,705.5C 683.118,714.786 690.118,723.786 697.5,732.5C 692.198,733.663 686.864,733.829 681.5,733C 677,727.167 672.5,721.333 668,715.5C 666.629,717.041 665.129,718.375 663.5,719.5 Z"/></g>
<g><path style="opacity:1" fill="#262626" d="M 349.5,702.5 C 348.51,696.69 348.177,690.69 348.5,684.5C 344.833,684.5 341.167,684.5 337.5,684.5C 337.5,700.5 337.5,716.5 337.5,732.5C 341.167,732.5 344.833,732.5 348.5,732.5C 348.177,726.31 348.51,720.31 349.5,714.5C 349.5,720.833 349.5,727.167 349.5,733.5C 345.167,733.5 340.833,733.5 336.5,733.5C 336.5,716.833 336.5,700.167 336.5,683.5C 340.833,683.5 345.167,683.5 349.5,683.5C 349.5,689.833 349.5,696.167 349.5,702.5 Z"/></g>
<g><path style="opacity:1" fill="#fbfbfb" d="M 457.5,695.5 C 467.913,693.918 474.247,698.251 476.5,708.5C 474.014,718.418 467.681,722.252 457.5,720C 450.547,716.59 448.047,711.09 450,703.5C 452.028,700.308 454.528,697.641 457.5,695.5 Z"/></g>
<g><path style="opacity:1" fill="#fcfcfc" d="M 563.5,695.5 C 574.945,694.78 580.778,700.114 581,711.5C 577.757,719.538 571.923,722.371 563.5,720C 556.776,716.517 554.276,711.017 556,703.5C 558.028,700.308 560.528,697.641 563.5,695.5 Z"/></g>
<g><path style="opacity:1" fill="#535353" d="M 663.5,719.5 C 663.5,724.167 663.5,728.833 663.5,733.5C 659.298,733.817 655.298,733.483 651.5,732.5C 655.167,732.5 658.833,732.5 662.5,732.5C 662.182,727.968 662.515,723.634 663.5,719.5 Z"/></g>
</svg>
